<?xml version="1.0" encoding="UTF-8"?>
<svg width="279px" height="78px" viewBox="0 0 279 78" version="1.1" xmlns="http://www.w3.org/2000/svg" xmlns:xlink="http://www.w3.org/1999/xlink">
    <!-- Generator: Sketch 43.2 (39069) - http://www.bohemiancoding.com/sketch -->
    <title>Ecosoft-Logo</title>
    <desc>Created with Sketch.</desc>
    <defs>
        <polygon id="path-1" points="0.18164999 9.92822463 17.8461024 9.92822463 17.8461024 0.0861392593 0.18164999 0.0861392593"></polygon>
    </defs>
    <g id="Page-1" stroke="none" stroke-width="1" fill="none" fill-rule="evenodd">
        <g id="drewbery" transform="translate(-820.000000, -5540.000000)">
            <g id="Ecosoft-Logo" transform="translate(820.000000, 5540.000000)">
                <path d="M89.3273918,39.8294348 C88.8026251,35.2056117 85.7953086,31.596908 80.5658072,31.596908 C75.7278625,31.596908 72.326971,34.969665 71.6084444,39.8294348 L89.3273918,39.8294348 Z M63.7631832,42.0224584 C63.7631832,33.0729465 70.7587261,25.7275061 80.6263572,25.7275061 C91.6141633,25.7275061 97.172653,33.5484979 97.172653,42.5565393 C97.172653,43.0284326 97.106048,44.211824 97.0414613,44.5703166 L71.6730311,44.5703166 C72.520731,49.666033 76.5109758,52.5101963 81.6113039,52.5101963 C85.4683386,52.5101963 88.2112535,51.2097461 90.9602233,48.7771177 L95.6003714,52.5101963 C92.3347083,56.0640287 87.8237335,58.3722821 81.4801122,58.3722821 C71.4732161,58.3722821 63.7631832,51.7986982 63.7631832,42.0224584 L63.7631832,42.0224584 Z" id="Fill-1" fill="#FFFFFF"></path>
                <path d="M99.1607112,42.0809878 C99.1607112,33.1954924 106.745607,25.7275061 117.073419,25.7275061 C123.612818,25.7275061 127.66765,27.9205298 130.872763,31.1195276 L125.966195,35.9207679 C123.546213,33.6070273 120.99504,32.012101 117.008832,32.012101 C111.252546,32.012101 107.070559,36.5152072 107.070559,42.0809878 C107.070559,47.6504266 111.319151,52.1553618 117.400389,52.1553618 C121.126232,52.1553618 123.873183,50.5549484 126.355733,48.2412078 L131.133128,52.5101963 C127.734255,55.9487989 123.746028,58.3722821 117.008832,58.3722821 C106.745607,58.3722821 99.1607112,51.0853711 99.1607112,42.0809878" id="Fill-2" fill="#FFFFFF"></path>
                <path d="M160.118411,42.0809878 C160.118411,36.5719075 155.740646,32.012101 149.528217,32.012101 C143.184595,32.012101 139.131782,36.5152072 139.131782,42.0809878 C139.131782,47.5315387 143.511565,52.1553618 149.65739,52.1553618 C156.06358,52.1553618 160.118411,47.5918972 160.118411,42.0809878 Z M131.221934,42.0809878 C131.221934,33.1333049 139.065177,25.7275061 149.65739,25.7275061 C160.25364,25.7275061 168.030277,33.0162461 168.030277,42.0809878 C168.030277,50.9701413 160.185016,58.3722821 149.528217,58.3722821 C138.998572,58.3722821 131.221934,51.0853711 131.221934,42.0809878 L131.221934,42.0809878 Z" id="Fill-3" fill="#FFFFFF"></path>
                <path d="M168.716511,53.578358 L172.250612,48.7185883 C175.974437,51.2627884 180.033305,52.5668967 183.559333,52.5668967 C186.964261,52.5668967 188.924063,51.2627884 188.924063,49.0734228 C188.924063,46.7615112 185.58574,45.9329543 181.793292,44.9251511 C181.599532,44.8647927 181.403753,44.8080923 181.205957,44.7495629 C176.105629,43.3850962 170.419984,41.4902066 170.419984,35.3866871 C170.419984,29.4605847 175.845264,25.848223 182.711633,25.848223 C187.02683,25.848223 191.733583,27.2090317 195.396858,29.4002263 L192.256331,34.4977717 C188.924063,32.6595826 185.389961,31.5347206 182.515855,31.5347206 C179.439915,31.5347206 177.675892,32.8369998 177.675892,34.7940768 C177.675892,36.926742 181.012197,37.8778449 184.802627,38.9972198 C184.998405,39.0612363 185.25877,39.1197657 185.454548,39.1819532 C190.494326,40.5994623 196.179971,42.6754271 196.179971,48.418625 C196.179971,54.9976961 190.556895,58.2570523 183.365573,58.2570523 C178.459005,58.2570523 173.033725,56.6584679 168.716511,53.578358" id="Fill-4" fill="#FFFFFF"></path>
                <path d="M226.796068,42.0809878 C226.796068,36.5719075 222.416284,32.012101 216.203855,32.012101 C209.860233,32.012101 205.809439,36.5152072 205.809439,42.0809878 C205.809439,47.5315387 210.185185,52.1553618 216.335046,52.1553618 C222.739218,52.1553618 226.796068,47.5918972 226.796068,42.0809878 Z M197.897572,42.0809878 C197.897572,33.1333049 205.742834,25.7275061 216.335046,25.7275061 C226.927259,25.7275061 234.707934,33.0162461 234.707934,42.0809878 C234.707934,50.9701413 226.862673,58.3722821 216.203855,58.3722821 C205.678247,58.3722821 197.897572,51.0853711 197.897572,42.0809878 L197.897572,42.0809878 Z" id="Fill-5" fill="#FFFFFF"></path>
                <path d="M239.671015,32.5425238 L235.289214,32.5425238 L235.289214,26.557892 L239.671015,26.557892 L239.671015,24.3045099 C239.671015,20.811036 241.527882,12.9900442 256.669418,12.9900442 L256.669418,19.2033064 C253.823568,19.2033064 247.449671,19.2618358 247.449671,24.8971201 L247.449671,26.6182505 L256.606849,26.6182505 L256.606849,32.5425238 L247.582881,32.5425238 L247.582881,57.6644421 L239.671015,57.6644421 L239.671015,32.5425238" id="Fill-6" fill="#FFFFFF"></path>
                <path d="M261.491216,49.0130643 L261.491216,32.5425238 L261.475069,32.5425238 L261.475069,26.6072762 L261.491216,26.6072762 L261.491216,19.3441428 C263.297624,19.5727733 267.639059,20.5037566 269.401064,21.64508 L269.401064,26.6072762 L274.725427,26.6072762 L274.725427,32.5425238 L269.401064,32.5425238 L269.401064,47.8863733 C269.401064,50.6701781 270.969308,51.7986982 273.651673,51.7986982 C275.417715,51.7986982 276.983941,51.4420347 278.554205,50.7323656 L278.554205,56.5962804 C276.592385,57.6077417 274.368182,58.1985229 271.425452,58.1985229 C265.608615,58.1985229 261.491216,55.8884404 261.491216,49.0130643" id="Fill-7" fill="#FFFFFF"></path>
                <polyline id="Fill-8" fill="#FFFFFF" points="66.391053 67.9198914 67.6989329 67.9198914 69.8666228 73.9209845 72.0867894 67.8887977 73.1121027 67.8887977 75.3403425 73.9209845 77.5140874 67.9198914 78.7916923 67.9198914 75.8852925 75.4555524 74.8175942 75.4555524 72.5974277 69.5513986 70.3651511 75.4555524 69.2792879 75.4555524 66.391053 67.9198914"></polyline>
                <path d="M84.9960487,72.6534571 L84.9960487,71.9529333 C84.3905487,71.7974645 83.5892704,71.6365087 82.5861588,71.6365087 C81.0522255,71.6365087 80.1782873,72.2474093 80.1782873,73.1692475 C80.1782873,74.1093761 81.1349772,74.6580892 82.2511155,74.6580892 C83.7648654,74.6580892 84.9960487,73.8368485 84.9960487,72.6534571 Z M78.9309573,73.1966831 C78.9309573,71.5944407 80.3680106,70.7530804 82.4569855,70.7530804 C83.5125737,70.7530804 84.2452287,70.8847716 84.979902,71.0731631 L84.979902,70.8390455 C84.979902,69.5111596 84.083762,68.8142939 82.5397371,68.8142939 C81.5669005,68.8142939 80.7979156,69.0356082 80.0370039,69.3538618 L79.667649,68.4411689 C80.5738806,68.0643859 81.4498372,67.8064907 82.6648738,67.8064907 C83.8314704,67.8064907 84.7397203,68.0918215 85.331092,68.6259024 C85.9042986,69.150838 86.1929203,69.8751394 86.1929203,70.8262422 L86.1929203,75.397023 L84.979902,75.397023 L84.979902,74.2849643 C84.4087137,74.9489072 83.4641338,75.5579788 82.0129522,75.5579788 C80.4608539,75.5579788 78.9309573,74.7641738 78.9309573,73.1966831 L78.9309573,73.1966831 Z" id="Fill-9" fill="#FFFFFF"></path>
                <path d="M88.0417135,73.4125103 L88.0417135,68.903917 L86.8912636,68.903917 L86.8912636,67.9198914 L88.0417135,67.9198914 L88.0417135,65.6646802 L89.2688601,65.6646802 L89.2688601,67.9198914 L91.88462,67.9198914 L91.88462,68.903917 L89.2688601,68.903917 L89.2688601,73.273503 C89.2688601,74.1825378 89.8279384,74.5154238 90.655455,74.5154238 C91.0712317,74.5154238 91.4204033,74.442262 91.8523266,74.2556996 L91.8523266,75.2086315 C91.4204033,75.4134844 90.9602233,75.5287141 90.3688517,75.5287141 C89.0468434,75.5287141 88.0417135,74.9324458 88.0417135,73.4125103" id="Fill-10" fill="#FFFFFF"></path>
                <path d="M98.6662196,71.2213157 C98.5208996,69.8568489 97.657053,68.7008932 96.0322947,68.7008932 C94.6093698,68.7008932 93.5255249,69.7708839 93.3519482,71.2213157 L98.6662196,71.2213157 Z M96.252293,74.6032179 C97.3865963,74.6032179 98.1858563,74.1825378 98.8579612,73.5478596 L99.6208912,74.1679055 C98.7953929,75.0074366 97.7862263,75.5726112 96.222018,75.5726112 C93.9574482,75.5726112 92.1046183,73.9941463 92.1046183,71.6657734 C92.1046183,69.4946982 93.7798349,67.7607646 96.0645881,67.7607646 C98.5027346,67.7607646 99.9074945,69.527621 99.9074945,71.7243028 C99.9074945,71.8267292 99.9074945,71.94013 99.8953845,72.1138891 L93.3519482,72.1138891 C93.5255249,73.692354 94.7990931,74.6032179 96.252293,74.6032179 L96.252293,74.6032179 Z" id="Fill-11" fill="#FFFFFF"></path>
                <g id="Group-15" transform="translate(100.916661, 67.674625)">
                    <mask id="mask-2" fill="white">
                        <use xlink:href="#path-1"></use>
                    </mask>
                    <g id="Clip-13"></g>
                    <path d="M0.18164999,0.245266081 L1.40677826,0.245266081 L1.40677826,2.20051404 C2.01833322,0.951277037 3.21318649,0.0568745564 4.77335807,0.117233006 L4.77335807,1.31525678 L4.67849641,1.31525678 C2.87612484,1.31525678 1.40677826,2.48584489 1.40677826,4.74654319 L1.40677826,7.72239766 L0.18164999,7.72239766 L0.18164999,0.245266081" id="Fill-12" fill="#FFFFFF" mask="url(#mask-2)"></path>
                    <path d="M16.5846441,3.97468665 C16.5846441,2.21331735 15.2444708,1.0829682 13.6822809,1.0829682 C12.1483477,1.0829682 10.6991844,2.2572144 10.6991844,3.99114804 C10.6991844,5.72508169 12.1483477,6.88286649 13.6822809,6.88286649 C15.2808008,6.88286649 16.5846441,5.81104675 16.5846441,3.97468665 Z M9.51644114,0.245266081 L10.7415694,0.245266081 L10.7415694,1.75056923 C11.4136744,0.854337709 12.3905477,0.0861392593 13.9063159,0.0861392593 C15.8842825,0.0861392593 17.8461024,1.5036483 17.8461024,3.99114804 C17.8461024,6.43475073 15.9004291,7.88335352 13.9063159,7.88335352 C12.3723827,7.88335352 11.381381,7.12612934 10.7415694,6.29025626 L10.7415694,10.0379673 L9.51644114,10.0379673 L9.51644114,0.245266081 L9.51644114,0.245266081 Z" id="Fill-14" fill="#FFFFFF" mask="url(#mask-2)"></path>
                </g>
                <path d="M120.01413,67.9198914 L121.239258,67.9198914 L121.239258,69.8751394 C121.846777,68.6259024 123.045667,67.7314999 124.607856,67.7918583 L124.607856,68.9898821 L124.510976,68.9898821 C122.708605,68.9898821 121.239258,70.1604702 121.239258,72.4211685 L121.239258,75.397023 L120.01413,75.397023 L120.01413,67.9198914" id="Fill-16" fill="#FFFFFF"></path>
                <path d="M131.986883,71.6657734 C131.986883,70.0580438 130.662856,68.7447902 128.923053,68.7447902 C127.136828,68.7447902 125.907663,70.0580438 125.907663,71.6657734 C125.907663,73.273503 127.215543,74.5721242 128.95131,74.5721242 C130.741571,74.5721242 131.986883,73.273503 131.986883,71.6657734 Z M124.644186,71.6657734 C124.644186,69.5513986 126.464723,67.7607646 128.95131,67.7607646 C131.427804,67.7607646 133.250359,69.527621 133.250359,71.6657734 C133.250359,73.7801481 131.411658,75.5726112 128.923053,75.5726112 C126.448576,75.5726112 124.644186,73.8075838 124.644186,71.6657734 L124.644186,71.6657734 Z" id="Fill-17" fill="#FFFFFF"></path>
                <path d="M134.681358,68.903917 L133.549073,68.903917 L133.549073,67.9345238 L134.681358,67.9345238 L134.681358,67.2852132 C134.681358,66.4310496 134.939704,65.778081 135.399884,65.3574009 C135.817679,64.9842759 136.421161,64.781252 137.169962,64.781252 C137.745187,64.781252 138.130689,64.8397814 138.528301,64.9696435 L138.528301,65.9372078 C138.082249,65.820149 137.745187,65.7524743 137.333447,65.7524743 C136.372721,65.7524743 135.892358,66.2700938 135.892358,67.3419135 L135.892358,67.9491561 L138.514172,67.9491561 L138.514172,68.903917 L135.910523,68.903917 L135.910523,75.397023 L134.681358,75.397023 L134.681358,68.903917" id="Fill-18" fill="#FFFFFF"></path>
                <path d="M144.948619,71.2213157 C144.807335,69.8568489 143.945507,68.7008932 142.314694,68.7008932 C140.895806,68.7008932 139.811961,69.7708839 139.638384,71.2213157 L144.948619,71.2213157 Z M142.540747,74.6032179 C143.677069,74.6032179 144.470274,74.1825378 145.14036,73.5478596 L145.907327,74.1679055 C145.077792,75.0074366 144.072662,75.5726112 142.506436,75.5726112 C140.239847,75.5726112 138.391054,73.9941463 138.391054,71.6657734 C138.391054,69.4946982 140.066271,67.7607646 142.346987,67.7607646 C144.787152,67.7607646 146.195949,69.527621 146.195949,71.7243028 C146.195949,71.8267292 146.195949,71.94013 146.177784,72.1138891 L139.638384,72.1138891 C139.811961,73.692354 141.083511,74.6032179 142.540747,74.6032179 L142.540747,74.6032179 Z" id="Fill-19" fill="#FFFFFF"></path>
                <path d="M146.613744,74.442262 L147.23539,73.6466279 C148.125475,74.2556996 149.114458,74.6032179 150.091332,74.6032179 C151.080315,74.6032179 151.796823,74.1422988 151.796823,73.3869037 C151.796823,72.6351666 150.826005,72.3480068 149.738123,72.068163 C148.44639,71.7389351 147.011355,71.3328874 147.011355,69.9318397 C147.011355,68.6441928 148.196117,67.7918583 149.818857,67.7918583 C150.826005,67.7918583 151.940125,68.1082829 152.787825,68.61127 L152.228747,69.4508012 C151.46178,69.0045145 150.581787,68.7301579 149.7906,68.7301579 C148.813727,68.7301579 148.196117,69.192906 148.196117,69.8458747 C148.196117,70.5537147 149.213357,70.8262422 150.315367,71.1316925 C151.590953,71.4810399 152.959383,71.9254976 152.959383,73.3009386 C152.959383,74.7184477 151.671687,75.5396884 150.026745,75.5396884 C148.84602,75.5396884 147.53814,75.1244954 146.613744,74.442262" id="Fill-20" fill="#FFFFFF"></path>
                <path d="M153.506352,74.442262 L154.130017,73.6466279 C155.02212,74.2556996 156.013121,74.6032179 156.985958,74.6032179 C157.97696,74.6032179 158.697505,74.1422988 158.697505,73.3869037 C158.697505,72.6351666 157.72265,72.3480068 156.636786,72.068163 C155.338998,71.7389351 153.905982,71.3328874 153.905982,69.9318397 C153.905982,68.6441928 155.084688,67.7918583 156.71752,67.7918583 C157.72265,67.7918583 158.83677,68.1082829 159.686488,68.61127 L159.123373,69.4508012 C158.360443,69.0045145 157.478431,68.7301579 156.68119,68.7301579 C155.708353,68.7301579 155.084688,69.192906 155.084688,69.8458747 C155.084688,70.5537147 156.107983,70.8262422 157.21403,71.1316925 C158.487598,71.4810399 159.858046,71.9254976 159.858046,73.3009386 C159.858046,74.7184477 158.566313,75.5396884 156.921371,75.5396884 C155.740646,75.5396884 154.432767,75.1244954 153.506352,74.442262" id="Fill-21" fill="#FFFFFF"></path>
                <path d="M161.081156,75.397023 L162.312339,75.397023 L162.312339,67.9198914 L161.081156,67.9198914 L161.081156,75.397023 Z M161.000423,66.2883842 L162.407201,66.2883842 L162.407201,65.0556086 L161.000423,65.0556086 L161.000423,66.2883842 Z" id="Fill-22" fill="#FFFFFF"></path>
                <path d="M170.878146,71.6657734 C170.878146,70.0580438 169.550082,68.7447902 167.814316,68.7447902 C166.024054,68.7447902 164.792871,70.0580438 164.792871,71.6657734 C164.792871,73.273503 166.104788,74.5721242 167.844591,74.5721242 C169.630816,74.5721242 170.878146,73.273503 170.878146,71.6657734 Z M163.531413,71.6657734 C163.531413,69.5513986 165.355986,67.7607646 167.844591,67.7607646 C170.319067,67.7607646 172.135567,69.527621 172.135567,71.6657734 C172.135567,73.7801481 170.300902,75.5726112 167.814316,75.5726112 C165.337821,75.5726112 163.531413,73.8075838 163.531413,71.6657734 L163.531413,71.6657734 Z" id="Fill-23" fill="#FFFFFF"></path>
                <path d="M173.334457,67.9198914 L174.563622,67.9198914 L174.563622,69.2203416 C175.106554,68.4100752 175.9704,67.7607646 177.383234,67.7607646 C179.38542,67.7607646 180.54798,68.9752498 180.54798,70.7530804 L180.54798,75.397023 L179.320833,75.397023 L179.320833,71.0310951 C179.320833,69.6410217 178.491299,68.7740549 177.038099,68.7740549 C175.617192,68.7740549 174.563622,69.7141835 174.563622,71.1152311 L174.563622,75.397023 L173.334457,75.397023 L173.334457,67.9198914" id="Fill-24" fill="#FFFFFF"></path>
                <path d="M187.596,72.6534571 L187.596,71.9529333 C186.992518,71.7974645 186.193258,71.6365087 185.190146,71.6365087 C183.658232,71.6365087 182.780257,72.2474093 182.780257,73.1692475 C182.780257,74.1093761 183.736947,74.6580892 184.853085,74.6580892 C186.368853,74.6580892 187.596,73.8368485 187.596,72.6534571 Z M181.532927,73.1966831 C181.532927,71.5944407 182.96998,70.7530804 185.060973,70.7530804 C186.116561,70.7530804 186.847198,70.8847716 187.581871,71.0731631 L187.581871,70.8390455 C187.581871,69.5111596 186.68775,68.8142939 185.141707,68.8142939 C184.166852,68.8142939 183.401903,69.0356082 182.634937,69.3538618 L182.2676,68.4411689 C183.177868,68.0643859 184.055843,67.8064907 185.268861,67.8064907 C186.43344,67.8064907 187.339671,68.0918215 187.931043,68.6259024 C188.506268,69.150838 188.79489,69.8751394 188.79489,70.8262422 L188.79489,75.397023 L187.581871,75.397023 L187.581871,74.2849643 C187.004628,74.9489072 186.068121,75.5579788 184.61694,75.5579788 C183.06686,75.5579788 181.532927,74.7641738 181.532927,73.1966831 L181.532927,73.1966831 Z" id="Fill-25" fill="#FFFFFF"></path>
                <polygon id="Fill-26" fill="#FFFFFF" points="190.47818 75.397023 191.705326 75.397023 191.705326 64.8397814 190.47818 64.8397814"></polygon>
                <path d="M192.750823,74.442262 L193.376506,73.6466279 C194.266591,74.2556996 195.255574,74.6032179 196.230429,74.6032179 C197.219413,74.6032179 197.937939,74.1422988 197.937939,73.3869037 C197.937939,72.6351666 196.963084,72.3480068 195.877221,72.068163 C194.589524,71.7389351 193.150453,71.3328874 193.150453,69.9318397 C193.150453,68.6441928 194.329159,67.7918583 195.959973,67.7918583 C196.963084,67.7918583 198.083259,68.1082829 198.930959,68.61127 L198.365826,69.4508012 C197.602896,69.0045145 196.728958,68.7301579 195.925661,68.7301579 C194.952824,68.7301579 194.329159,69.192906 194.329159,69.8458747 C194.329159,70.5537147 195.352454,70.8262422 196.450428,71.1316925 C197.732069,71.4810399 199.102517,71.9254976 199.102517,73.3009386 C199.102517,74.7184477 197.810784,75.5396884 196.167861,75.5396884 C194.987136,75.5396884 193.675219,75.1244954 192.750823,74.442262" id="Fill-27" fill="#FFFFFF"></path>
                <path d="M63.0244732,0.839705357 C59.885965,0.318427838 56.6566319,0.0440712489 53.3566571,0.0440712489 C52.8641838,0.0440712489 52.3777655,0.0513874246 51.8913472,0.0623616882 C23.574132,0.755569337 0.762929958,21.4292529 0,47.0870811 C1.48952992,47.2169432 2.99924317,47.2827888 4.52712142,47.2827888 C7.2236146,47.2827888 9.86561279,47.0669616 12.4430243,46.6792043 C15.7833658,28.6119084 31.5061816,14.3673142 51.4352038,11.3402465 C48.0948624,29.4020553 32.3720466,43.6484785 12.4430243,46.6792043 C12.0151377,49.0112353 11.774956,51.4054538 11.774956,53.8490565 C11.774956,55.2318137 11.847616,56.5999385 11.986881,57.9479439 C40.3020778,57.2602234 63.1152982,36.5865399 63.8762098,10.9250536 C63.8883198,10.486083 63.8984115,10.0416254 63.8984115,9.59899673 C63.8984115,6.60485182 63.5936432,3.67838153 63.0244732,0.839705357" id="Fill-28" fill="#FFFFFF"></path>
                <path d="M9.18745283,75.5579788 C11.7244977,74.6160212 14.0193426,73.2442383 15.9710708,71.5487146 C13.8699859,67.3309393 12.4874276,62.7583294 11.986881,57.9479439 C11.5004627,57.9607472 11.0160627,57.9680634 10.5235894,57.9680634 C7.2236146,57.9680634 3.99024478,57.6973649 0.855773286,57.1779164 C2.21007488,63.8941657 5.10840139,70.1220603 9.18745283,75.5579788" id="Fill-29" fill="#FFFFFF"></path>
            </g>
        </g>
    </g>
</svg>