<?xml version="1.0" encoding="UTF-8"?>
<svg width="66px" height="65px" viewBox="0 0 66 65" version="1.1" xmlns="http://www.w3.org/2000/svg" xmlns:xlink="http://www.w3.org/1999/xlink">
    <!-- Generator: Sketch 43.2 (39069) - http://www.bohemiancoding.com/sketch -->
    <title>Shape</title>
    <desc>Created with Sketch.</desc>
    <defs></defs>
    <g id="Page-1" stroke="none" stroke-width="1" fill="none" fill-rule="evenodd">
        <g id="drewbery" transform="translate(-1188.000000, -1006.000000)" fill="#00A3DA">
            <g id="Group-23" transform="translate(1188.000000, 1006.000000)">
                <path d="M52.3194225,64.0969929 L40.3177903,64.0969929 C39.8442943,64.0969929 39.4606289,63.7039516 39.4606289,63.2188845 L39.4606289,60.5469764 C37.4432136,60.9811132 35.3640827,61.2045039 33.2784374,61.2045039 C30.4470616,61.2045039 27.6681441,60.8040865 25.0010004,60.0134378 L25.0010004,63.2188845 C25.0010004,63.7039516 24.6173349,64.0969929 24.1438389,64.0969929 L13.1666861,64.0969929 C12.6931901,64.0969929 12.3095246,63.7039516 12.3095246,63.2188845 L12.3095246,51.7908311 C10.8509786,50.0149447 9.6941535,48.060978 8.88156441,45.9865348 L4.00328699,45.9865348 C3.95151443,45.9865348 3.90042761,45.9816174 3.85071224,45.9728363 C3.81162568,45.9767 3.77253912,45.9795099 3.73310969,45.9812662 C1.78598166,46.0915566 0.152917608,43.7751067 0.00994307319,40.7410667 C-0.0545154703,39.3757838 0.198518599,38.0631875 0.722072833,37.0456355 C1.19454024,36.1271341 1.84598297,35.516322 2.5961707,35.2736128 C2.71240179,35.210389 2.84166175,35.1749134 2.97469321,35.1749134 L3.03915175,35.1749134 C3.10018165,35.1675373 3.16155441,35.1619174 3.2236129,35.1587562 L3.2246415,35.1787771 L3.2236129,35.1587562 C3.3669303,35.1513801 3.50853338,35.1573513 3.64807927,35.1749134 L7.81354121,35.1749134 C8.57984357,30.4854636 10.1673066,27.3836336 13.3048605,24.4268671 L12.0019751,18.7374274 C11.9251734,18.40199 12.0468903,18.0518004 12.3132961,17.8414057 C12.579359,17.6306597 12.9414241,17.5997502 13.2380019,17.7609709 L18.0830215,20.3928373 C22.3317995,17.599399 27.4408248,16.1842396 33.2784374,16.1842396 C46.7115293,16.1842396 57.7778269,25.2031149 58.9541953,36.6698051 C59.6491818,36.3751119 60.658918,35.8313873 61.7015693,34.8731954 C63.5595525,33.1647478 63.90516,31.2023512 63.9082458,31.1826816 C63.9877904,30.7046394 64.4300857,30.383603 64.8974101,30.4650914 C65.3640488,30.5465799 65.67777,31.0000351 65.5978825,31.4784285 C65.5803964,31.583099 65.1439298,34.0677944 62.8463941,36.1801719 C61.3398471,37.5647732 59.8833583,38.2201932 59.0567118,38.5075103 C59.0570547,38.5696804 59.0573975,38.6322017 59.0573975,38.6943717 C59.0573975,43.9152528 56.9717522,48.9829918 53.1762412,53.0040256 L53.1762412,63.2192358 C53.176584,63.7039516 52.7925757,64.0969929 52.3194225,64.0969929 Z M45.8104811,62.3407762 L51.4622611,62.3407762 L51.4622611,52.6447036 C51.4622611,52.4121805 51.5524345,52.189141 51.7125522,52.0244079 C55.3434883,48.2945548 57.3434174,43.5601458 57.3434174,38.6940205 C57.3434174,27.2501611 46.5479829,17.940105 33.2784374,17.940105 C27.6064284,17.940105 22.6828929,19.3447272 18.6449766,22.1149834 L14.8138076,25.398055 C11.5541939,28.3463916 10.085362,31.2690875 9.39654703,36.1777132 C9.33586,36.6097425 8.97448072,36.9311302 8.54795716,36.9311302 L5.98195855,36.9311302 C6.53328482,37.8482265 6.88952113,39.0565036 6.95295108,40.3989557 C7.02255259,41.8766364 6.7232318,43.2278696 6.16539111,44.2303181 L13.0507979,44.2303181 C13.0651982,44.2303181 13.0795985,44.2306693 13.0943417,44.2313718 C13.1512572,44.235938 14.6927764,44.2780872 15.7817143,43.023446 C15.9387463,42.8425556 16.1612654,42.7364801 16.3971563,42.729104 C16.6330471,42.7143518 16.8613949,42.8148074 17.02837,42.9858629 L17.909532,43.8885583 C18.2441679,44.2317231 18.2441679,44.7877413 17.909532,45.1302035 C17.5742104,45.4733683 17.0317987,45.473017 16.6971628,45.1302035 L16.4012707,44.8270805 C14.9430676,45.9967209 13.2846315,45.9949647 13.0360547,45.9865348 L10.7433192,45.9865348 C12.1106631,49.1227866 14.3550548,51.9418657 17.2923757,54.196848 C17.5083804,54.3629861 17.6352403,54.6232574 17.6352403,54.8996859 L17.6352403,62.3411274 L23.2870203,62.3411274 L23.2870203,58.8206154 C23.2870203,58.5382157 23.4197089,58.273027 23.6432566,58.1082939 C23.8668043,57.9428582 24.1548106,57.8975478 24.4157305,57.9878174 C27.2484778,58.957249 30.2300283,59.4486385 33.2787802,59.4486385 C37.2217231,59.4486385 41.1372367,58.6038982 44.6015406,57.0060922 C44.866232,56.8835083 45.1741244,56.9073929 45.4189298,57.069316 C45.6630493,57.2312392 45.810824,57.5087215 45.810824,57.8069271 L45.810824,62.3407762 L45.8104811,62.3407762 Z M41.1749518,62.3407762 L44.0961582,62.3407762 L44.0961582,59.129007 C43.1467661,59.5118623 42.1706306,59.843436 41.1749518,60.1226744 L41.1749518,62.3407762 Z M14.0238476,62.3407762 L15.9205745,62.3407762 L15.9205745,55.3341739 C15.25336,54.803094 14.620432,54.2442658 14.0238476,53.6601481 L14.0238476,62.3407762 Z M1.84358292,41.6599193 C2.15250391,43.2166298 2.94897836,44.2594713 3.65047932,44.2275081 C3.68888015,44.2254007 3.72728099,44.220132 3.76568182,44.2117022 C3.7745963,44.2092435 3.78385365,44.2064335 3.79311099,44.2043261 C3.81608292,44.1983549 3.83905485,44.1913301 3.86202677,44.1832515 C4.43838215,43.9735592 4.98627977,43.045223 5.17382671,41.7666973 C4.55495612,41.7364903 4.06020251,41.2113816 4.06020251,40.5700112 C4.06020251,39.9570916 4.51175518,39.4502474 5.09188207,39.3799988 C4.95850774,38.7593518 4.74113159,38.1959574 4.45792544,37.7544446 C4.17403355,37.3118779 3.84899792,37.0273708 3.537334,36.9402625 C3.50784765,36.9325351 3.47870416,36.9262128 3.44956067,36.9219978 C3.43893187,36.9202416 3.4279602,36.9184854 3.41767426,36.9163779 C3.38544499,36.9125143 3.35218712,36.912163 3.32167218,36.9118118 C3.30007171,36.9167292 3.27847124,36.9202416 3.25618504,36.9230516 L3.24795629,36.9244565 C3.22327004,36.9276177 3.19858379,36.9300764 3.17458327,36.9349938 C3.16086868,36.938155 3.14749696,36.940965 3.13378238,36.9430724 C2.81286112,37.0414206 2.49399705,37.3666719 2.23822006,37.8640325 C2.00987224,38.3073016 1.85112594,38.85489 1.77192422,39.4488425 C2.21284808,39.6206004 2.52725491,40.0582497 2.52725491,40.5693087 C2.52725491,41.053322 2.24679168,41.4705991 1.84358292,41.6599193 Z M5.1961129,40.0129393 C4.91153529,40.0312039 4.68524466,40.2739131 4.68524466,40.5700112 C4.68524466,40.8777004 4.92970712,41.1281369 5.2300565,41.1281369 L5.2348566,41.1281369 C5.24445681,40.9191471 5.24479968,40.7041862 5.23451374,40.4832541 C5.22662785,40.3251946 5.21394186,40.1681888 5.1961129,40.0129393 Z M1.71672302,40.1509779 C1.71226578,40.3181697 1.7139801,40.4871178 1.72220885,40.6567683 C1.72700895,40.7603851 1.73420911,40.8629482 1.74346645,40.963755 C1.84186859,40.8629482 1.90255563,40.7235045 1.90255563,40.5700112 C1.90255563,40.4028194 1.83055406,40.2531897 1.71672302,40.1509779 Z M14.1020207,20.2179181 L14.7719781,23.1441264 L16.6021893,21.5761761 L14.1020207,20.2179181 Z M17.3033474,35.1471652 C15.8276582,35.1471652 14.6272893,33.9174623 14.6272893,32.4057109 C14.6272893,30.8939596 15.8276582,29.6639054 17.3033474,29.6639054 C18.7790366,29.6639054 19.9794056,30.8939596 19.9794056,32.4057109 C19.9794056,33.9174623 18.7790366,35.1471652 17.3033474,35.1471652 Z M17.3033474,31.4201221 C16.7729359,31.4201221 16.3416122,31.8623375 16.3416122,32.4057109 C16.3416122,32.9490844 16.7729359,33.3909485 17.3033474,33.3909485 C17.8337589,33.3909485 18.2650826,32.9490844 18.2650826,32.4057109 C18.2650826,31.8623375 17.8337589,31.4201221 17.3033474,31.4201221 Z M27.536484,31.5574582 L27.536484,31.5574582 C27.062988,31.557107 26.6793226,31.1640657 26.6793226,30.6789986 C26.6793226,30.6466842 26.6721224,27.3920634 26.0457088,24.5677157 C25.7481023,23.2256149 25.4768964,22.4107303 25.2955211,21.9530602 C24.5827056,22.1480003 23.3624505,22.5944306 22.4401447,23.5234692 C21.4838954,24.4869297 20.9219403,25.7313849 20.9164545,25.7436784 C20.7196502,26.1841376 20.211182,26.3783751 19.7812298,26.1781664 C19.3509348,25.9772552 19.160302,25.4581176 19.3557349,25.0169559 C19.3835069,24.9540834 20.0479785,23.4704315 21.2380615,22.2712867 C23.0322719,20.4637885 25.5461551,20.0956854 25.6524431,20.080582 C25.9630784,20.0380815 26.2713137,20.1708515 26.4571463,20.4286641 C26.5603486,20.5716202 27.1065318,21.4247903 27.7171737,24.1788893 C28.3871311,27.1999333 28.3933027,30.5392038 28.3933027,30.6800524 C28.3936455,31.1647682 28.00998,31.5574582 27.536484,31.5574582 Z M38.8832449,21.8290713 C38.7694138,21.8290713 38.6538685,21.8058893 38.5427803,21.756364 L38.5427803,21.756364 C38.5228942,21.7479341 36.5486799,20.8898466 33.8174205,20.8898466 C31.053589,20.8898466 28.6939949,21.7654963 28.6703373,21.7746286 C28.2263276,21.9421717 27.7339741,21.7085949 27.5700848,21.2544372 C27.4065384,20.7995771 27.6331719,20.2955429 28.0768386,20.1272973 C28.1838124,20.0869044 30.7350678,19.1339812 33.8174205,19.1339812 C36.9248023,19.1339812 39.133536,20.1048178 39.2261095,20.1459132 C39.6601761,20.3397996 39.8583518,20.857181 39.6690905,21.3018551 C39.5288589,21.6316726 39.2137664,21.8290713 38.8832449,21.8290713 Z M33.6202734,12.8119522 C30.2550574,12.8119522 27.5169408,10.0072741 27.5169408,6.55911821 C27.5169408,3.11166478 30.2550574,0.306635439 33.6202734,0.306635439 C36.9854894,0.306635439 39.723606,3.11131354 39.723606,6.55911821 C39.7239489,10.0069229 36.9858322,12.8119522 33.6202734,12.8119522 Z M33.6202734,2.06285216 C31.1999922,2.06285216 29.2312637,4.07969144 29.2312637,6.55911821 C29.2312637,9.03854497 31.2003351,11.0557355 33.6202734,11.0557355 C36.0402117,11.0557355 38.009283,9.03854497 38.009283,6.55911821 C38.009283,4.07969144 36.0405545,2.06285216 33.6202734,2.06285216 Z" id="Shape"></path>
            </g>
        </g>
    </g>
</svg>