<?xml version="1.0" encoding="UTF-8"?>
<svg width="59px" height="60px" viewBox="0 0 59 60" version="1.1" xmlns="http://www.w3.org/2000/svg" xmlns:xlink="http://www.w3.org/1999/xlink">
    <!-- Generator: Sketch 43.2 (39069) - http://www.bohemiancoding.com/sketch -->
    <title>Group 6</title>
    <desc>Created with Sketch.</desc>
    <defs></defs>
    <g id="Page-1" stroke="none" stroke-width="1" fill="none" fill-rule="evenodd">
        <g id="drewbery" transform="translate(-806.000000, -1013.000000)" stroke="#00A3DA" stroke-width="2">
            <g id="Group-21" transform="translate(806.500000, 1013.000000)">
                <g id="Group-6" transform="translate(1.000000, 1.000000)">
                    <path d="M46.1604681,52.1965219 L45.7650249,52.1965219 L37.2629972,52.1965219 L37.2629972,55.7951286 L32.5176794,49.6260886 L37.361858,43.0457793 L37.361858,47.2612899 L46.0616073,47.2612899 C46.8524936,47.2612899 47.6433799,46.9528379 48.4342662,46.5415686 C50.8069251,44.9993086 51.5978114,41.8119713 50.2137604,39.2415379 L41.6128718,24.3330246 L45.7650249,21.7625913 L54.3659134,36.6711046 L54.7613566,37.2880086 C57.0351547,42.1204233 55.4533821,47.9810113 51.0046467,50.8598966 C49.4228741,51.5796179 47.8411015,52.0937046 46.1604681,52.1965219 L46.1604681,52.1965219 Z" id="Shape"></path>
                    <path d="M36.3504361,5.35165787 C36.4492968,5.4544752 36.4492968,5.55729253 36.5481576,5.66010987 L40.5025891,13.4742272 L43.5672736,11.8291499 L40.6014499,19.1291805 L32.6925869,17.7925552 L36.2515753,15.8390259 L32.198283,7.9220912 C31.8028398,7.20236987 31.2096751,6.58546587 30.4187888,6.0713792 C28.0461299,4.63193653 24.8825847,5.4544752 23.3996729,7.9220912 L14.9965059,22.9334219 L10.8443528,20.3629885 L19.3463806,5.4544752 L19.7418237,4.8375712 C22.7076474,0.416425865 28.441573,-0.920199469 32.9891693,1.85586853 C34.3732203,2.6784072 35.5595498,3.9122152 36.3504361,5.35165787 L36.3504361,5.35165787 Z" id="Shape"></path>
                    <path d="M1.72634636,36.7264678 C1.82520714,36.6236504 1.82520714,36.5208331 1.92406793,36.4180158 L6.37280338,28.9123504 L3.50584053,27.0616384 L11.0192604,26.0334651 L13.8862232,33.8475824 L10.4260957,31.5856011 L5.87849944,39.2969011 C5.48305629,40.0166224 5.28533471,40.8391611 5.28533471,41.7645171 C5.28533471,44.7462198 7.55913283,47.1110184 10.3272349,47.1110184 L27.034708,47.2138358 L27.034708,52.2518851 L10.3272349,52.1490678 L9.63520937,52.1490678 C4.49444841,51.7377984 0.441156117,47.2138358 0.441156117,41.7645171 C0.441156117,39.9138051 0.935460055,38.2687278 1.72634636,36.7264678 L1.72634636,36.7264678 Z" id="Shape"></path>
                </g>
            </g>
        </g>
    </g>
</svg>