<?xml version="1.0" encoding="UTF-8"?>
<svg width="40px" height="56px" viewBox="0 0 40 56" version="1.1" xmlns="http://www.w3.org/2000/svg" xmlns:xlink="http://www.w3.org/1999/xlink">
    <!-- Generator: Sketch 43.2 (39069) - http://www.bohemiancoding.com/sketch -->
    <title>Shape</title>
    <desc>Created with Sketch.</desc>
    <defs></defs>
    <g id="Page-1" stroke="none" stroke-width="1" fill="none" fill-rule="evenodd">
        <g id="drewbery" transform="translate(-426.000000, -1015.000000)" stroke="#00A3DA">
            <g id="flaticon1489792440-svg" transform="translate(427.000000, 1016.000000)">
                <g id="Capa_1">
                    <path d="M21.2647222,46.6492248 C20.1752778,46.9295102 19.0444444,47.0714694 17.9029167,47.0714694 C10.9326389,47.0714694 5.26194444,41.7718945 5.26194444,35.2578425 C5.26194444,33.6852539 5.67444444,31.8478891 6.48763889,29.7970267 C6.625,29.4505123 7.01638889,29.2528035 7.40222222,29.3366376 C7.78777778,29.4201923 8.04666667,29.7583233 8.00694444,30.1260757 C7.95944444,30.5659255 7.93527778,30.9955754 7.93527778,31.4025901 C7.93527778,38.4914648 13.6131944,44.4277599 21.1426389,45.2102118 C21.5173611,45.2491947 21.8097222,45.5311569 21.8395833,45.8825616 C21.8695833,46.2339663 21.6281944,46.55561 21.2647222,46.6492248 Z" id="Path"></path>
                </g>
            </g>
            <g id="Group-22" transform="translate(426.000000, 1014.000000)" stroke-width="2">
                <path d="M31.0301389,16.9363086 C27.255,10.6677509 23.0561111,5.24242488 20.8890278,2.56629958 C20.5990278,2.20790865 20.1638889,1.99986028 19.7045833,2 C19.2451389,2 18.8101389,2.20804838 18.52,2.5664393 C16.3530556,5.24340294 12.1541667,10.6705454 8.37902778,16.939662 C3.51402778,25.0188972 1.04722222,31.6986614 1.04722222,36.7929823 C1.04722222,47.1424459 9.41680556,55.5623272 19.7044444,55.5623272 C29.9920833,55.5623272 38.3616667,47.1424459 38.3616667,36.7929823 C38.3618056,31.695308 35.8952778,25.0145658 31.0301389,16.9363086 Z" id="Shape"></path>
            </g>
        </g>
    </g>
</svg>