<?xml version="1.0" encoding="UTF-8"?>
<svg width="177px" height="50px" viewBox="0 0 177 50" version="1.1" xmlns="http://www.w3.org/2000/svg" xmlns:xlink="http://www.w3.org/1999/xlink">
    <!-- Generator: Sketch 43.2 (39069) - http://www.bohemiancoding.com/sketch -->
    <title>Ecosoft-Logo</title>
    <desc>Created with Sketch.</desc>
    <defs>
        <filter x="0.0%" y="0.0%" width="100.0%" height="100.0%" filterUnits="objectBoundingBox" id="filter-1">
            <feGaussianBlur stdDeviation="8.89533548" in="SourceGraphic"></feGaussianBlur>
        </filter>
        <polygon id="path-2" points="0.114828744 6.28368648 11.2812861 6.28368648 11.2812861 0.0545185185 0.114828744 0.0545185185"></polygon>
    </defs>
    <g id="Page-1" stroke="none" stroke-width="1" fill="none" fill-rule="evenodd">
        <g id="drewbery" transform="translate(-422.000000, -22.000000)">
            <rect id="Rectangle-4" fill="#FFFFFF" opacity="0" filter="url(#filter-1)" x="0" y="0" width="1920" height="86"></rect>
            <g id="Ecosoft-Logo" transform="translate(422.000000, 22.000000)">
                <path d="M56.4676726,25.208503 C56.1359452,22.2820327 54.2348915,19.9980431 50.9290996,19.9980431 C47.8708274,19.9980431 45.7209781,22.1326994 45.2667666,25.208503 L56.4676726,25.208503 Z M40.3074408,26.5964927 C40.3074408,20.9322446 44.7296233,16.2832317 50.9673758,16.2832317 C57.9132389,16.2832317 61.4269985,21.2332265 61.4269985,26.9345185 C61.4269985,27.2331852 61.3848946,27.9821671 61.3440666,28.2090612 L45.3075946,28.2090612 C45.8434621,31.4341981 48.3658668,33.2343015 51.5900028,33.2343015 C54.0281998,33.2343015 55.7621138,32.4112317 57.4998555,30.8715935 L60.4330919,33.2343015 C58.3687263,35.4835624 55.5171458,36.9444823 51.5070709,36.9444823 C45.181283,36.9444823 40.3074408,32.7839862 40.3074408,26.5964927 L40.3074408,26.5964927 Z" id="Fill-1" fill="#FFFFFF"></path>
                <path d="M62.6837353,26.6335366 C62.6837353,21.0098053 67.4784733,16.2832317 74.0071253,16.2832317 C78.1409601,16.2832317 80.7041928,17.6712214 82.7302822,19.6959035 L79.6286303,22.7346632 C78.0988562,21.2702705 76.4861503,20.2608234 73.9662973,20.2608234 C70.327502,20.2608234 67.6838892,23.1108906 67.6838892,26.6335366 C67.6838892,30.1584978 70.3696059,33.0097227 74.213817,33.0097227 C76.5690822,33.0097227 78.305548,31.9968028 79.8748741,30.53241 L82.8948701,33.2343015 C80.7462967,35.4106322 78.2251678,36.9444823 73.9662973,36.9444823 C67.4784733,36.9444823 62.6837353,32.3325134 62.6837353,26.6335366" id="Fill-2" fill="#FFFFFF"></path>
                <path d="M101.21771,26.6335366 C101.21771,23.1467769 98.4503372,20.2608234 94.5231942,20.2608234 C90.5131193,20.2608234 87.9511624,23.1108906 87.9511624,26.6335366 C87.9511624,30.0832524 90.719811,33.0097227 94.6048502,33.0097227 C98.6544772,33.0097227 101.21771,30.1214539 101.21771,26.6335366 Z M82.9510086,26.6335366 C82.9510086,20.9704462 87.9090585,16.2832317 94.6048502,16.2832317 C101.303194,16.2832317 106.21914,20.8963583 106.21914,26.6335366 C106.21914,32.2595831 101.259814,36.9444823 94.5231942,36.9444823 C87.8669547,36.9444823 82.9510086,32.3325134 82.9510086,26.6335366 L82.9510086,26.6335366 Z" id="Fill-3" fill="#FFFFFF"></path>
                <path d="M106.652937,33.9103531 L108.886994,30.8345495 C111.240983,32.4448028 113.806768,33.2701878 116.035721,33.2701878 C118.188122,33.2701878 119.426997,32.4448028 119.426997,31.0591283 C119.426997,29.5958932 117.3167,29.0714901 114.919331,28.43364 C114.796847,28.3954384 114.673087,28.3595521 114.548051,28.3225082 C111.323915,27.4589216 107.729776,26.2596245 107.729776,22.3966374 C107.729776,18.6459397 111.159327,16.3596348 115.499854,16.3596348 C118.227675,16.3596348 121.203015,17.2209061 123.518728,18.6077382 L121.533466,21.8340327 C119.426997,20.6706219 117.19294,19.9586839 115.376094,19.9586839 C113.431661,19.9586839 112.316546,20.7829113 112.316546,22.0215676 C112.316546,23.3713557 114.425567,23.9733196 116.82166,24.6817847 C116.94542,24.7223015 117.110008,24.7593454 117.233768,24.7987046 C120.419628,25.6958622 124.013767,27.009764 124.013767,30.6446994 C124.013767,34.8086684 120.45918,36.8715521 115.913237,36.8715521 C112.811585,36.8715521 109.382034,35.8597898 106.652937,33.9103531" id="Fill-4" fill="#FFFFFF"></path>
                <path d="M143.367514,26.6335366 C143.367514,23.1467769 140.598866,20.2608234 136.671722,20.2608234 C132.661648,20.2608234 130.100967,23.1108906 130.100967,26.6335366 C130.100967,30.0832524 132.867063,33.0097227 136.754654,33.0097227 C140.803006,33.0097227 143.367514,30.1214539 143.367514,26.6335366 Z M125.099537,26.6335366 C125.099537,20.9704462 130.058863,16.2832317 136.754654,16.2832317 C143.450446,16.2832317 148.368944,20.8963583 148.368944,26.6335366 C148.368944,32.2595831 143.409618,36.9444823 136.671722,36.9444823 C130.018035,36.9444823 125.099537,32.3325134 125.099537,26.6335366 L125.099537,26.6335366 Z" id="Fill-5" fill="#FFFFFF"></path>
                <path d="M151.50632,20.596534 L148.736396,20.596534 L148.736396,16.8087924 L151.50632,16.8087924 L151.50632,15.3826012 C151.50632,13.1715418 152.680125,8.22154694 162.251739,8.22154694 L162.251739,12.1539914 C160.452755,12.1539914 156.423542,12.1910353 156.423542,15.757671 L156.423542,16.846994 L162.212187,16.846994 L162.212187,20.596534 L156.50775,20.596534 L156.50775,36.4964823 L151.50632,36.4964823 L151.50632,20.596534" id="Fill-6" fill="#FFFFFF"></path>
                <path d="M165.299804,31.0209268 L165.299804,20.596534 L165.289597,20.596534 L165.289597,16.8400482 L165.299804,16.8400482 L165.299804,12.2431283 C166.441712,12.3878312 169.186119,12.9770612 170.299958,13.6994177 L170.299958,16.8400482 L173.665716,16.8400482 L173.665716,20.596534 L170.299958,20.596534 L170.299958,30.3078312 C170.299958,32.069733 171.291313,32.7839862 172.986951,32.7839862 C174.103341,32.7839862 175.09342,32.5582498 176.086051,32.1090922 L176.086051,35.8204307 C174.8459,36.460596 173.439886,36.8345082 171.579661,36.8345082 C167.902589,36.8345082 165.299804,35.3724307 165.299804,31.0209268" id="Fill-7" fill="#FFFFFF"></path>
                <polyline id="Fill-8" fill="#FFFFFF" points="41.9686299 42.987273 42.7953969 42.987273 44.1656866 46.7854332 45.569149 42.9675935 46.2172935 42.9675935 47.6258594 46.7854332 48.9999767 42.987273 49.8076055 42.987273 47.9703456 47.7566787 47.2954078 47.7566787 45.8919454 44.0198725 44.4808277 47.7566787 43.794407 47.7566787 41.9686299 42.987273"></polyline>
                <path d="M53.729645,45.9832007 L53.729645,45.5398312 C53.3468826,45.4414332 52.8403602,45.3395624 52.2062504,45.3395624 C51.2365854,45.3395624 50.6841316,45.7262084 50.6841316,46.3096503 C50.6841316,46.9046684 51.2888963,47.2519552 51.9944551,47.2519552 C52.9513613,47.2519552 53.729645,46.7321826 53.729645,45.9832007 Z M49.8956409,46.3270146 C49.8956409,45.3129371 50.8040638,44.7804307 52.1245944,44.7804307 C52.791877,44.7804307 53.2550196,44.8637795 53.7194381,44.9830146 L53.7194381,44.8348389 C53.7194381,43.9944048 53.1529496,43.5533506 52.1769053,43.5533506 C51.5619335,43.5533506 51.0758252,43.6934229 50.5948203,43.8948493 L50.3613352,43.3171955 C50.9342031,43.0787252 51.4879328,42.9155004 52.2560095,42.9155004 C52.9934652,42.9155004 53.5676089,43.0960896 53.9414403,43.4341154 C54.3037888,43.7663531 54.4862389,44.2247717 54.4862389,44.8267356 L54.4862389,47.7196348 L53.7194381,47.7196348 L53.7194381,47.0158002 C53.3583654,47.4360172 52.761256,47.8215056 51.8439019,47.8215056 C50.8627541,47.8215056 49.8956409,47.3190973 49.8956409,46.3270146 L49.8956409,46.3270146 Z" id="Fill-9" fill="#FFFFFF"></path>
                <path d="M55.6549403,46.4636141 L55.6549403,43.6100741 L54.9276916,43.6100741 L54.9276916,42.987273 L55.6549403,42.987273 L55.6549403,41.5599242 L56.4306723,41.5599242 L56.4306723,42.987273 L58.0842062,42.987273 L58.0842062,43.6100741 L56.4306723,43.6100741 L56.4306723,46.3756348 C56.4306723,46.9509733 56.7840896,47.1616606 57.3071984,47.1616606 C57.5700286,47.1616606 57.790755,47.1153557 58.0637922,46.9972782 L58.0637922,47.6003997 C57.790755,47.7300534 57.4998555,47.8029836 57.1260241,47.8029836 C56.290326,47.8029836 55.6549403,47.4255986 55.6549403,46.4636141" id="Fill-10" fill="#FFFFFF"></path>
                <path d="M62.371146,45.0767821 C62.279283,44.2131955 61.7332085,43.481578 60.7061292,43.481578 C59.8066373,43.481578 59.1214925,44.1587873 59.0117673,45.0767821 L62.371146,45.0767821 Z M60.8451995,47.2172265 C61.5622412,47.2172265 62.0674877,46.9509733 62.4923541,46.5492782 L62.9746348,46.9417123 C62.4528019,47.4730612 61.8148645,47.8307666 60.8260614,47.8307666 C59.3945297,47.8307666 58.2232766,46.8317382 58.2232766,45.3580844 C58.2232766,43.9839862 59.2822527,42.8865599 60.7265432,42.8865599 C62.2678001,42.8865599 63.155809,44.0048234 63.155809,45.3951283 C63.155809,45.4599552 63.155809,45.5317278 63.1481538,45.641702 L59.0117673,45.641702 C59.1214925,46.6407304 59.9265696,47.2172265 60.8451995,47.2172265 L60.8451995,47.2172265 Z" id="Fill-11" fill="#FFFFFF"></path>
                <g id="Group-15" transform="translate(63.793746, 42.832041)">
                    <mask id="mask-3" fill="white">
                        <use xlink:href="#path-2"></use>
                    </mask>
                    <g id="Clip-13"></g>
                    <path d="M0.114828744,0.155231697 L0.889284826,0.155231697 L0.889284826,1.3927304 C1.27587493,0.602074074 2.03119289,0.0359965547 3.01744421,0.0741981051 L3.01744421,0.832440999 L2.95747809,0.832440999 C1.81812178,0.832440999 0.889284826,1.57331955 0.889284826,3.00414126 L0.889284826,4.88759345 L0.114828744,4.88759345 L0.114828744,0.155231697" id="Fill-12" fill="#FFFFFF" mask="url(#mask-3)"></path>
                    <path d="M10.4838643,2.51562446 C10.4838643,1.40083376 9.63668335,0.685422911 8.64915615,0.685422911 C7.6794912,0.685422911 6.763413,1.42861671 6.763413,2.52604307 C6.763413,3.62346942 7.6794912,4.35624462 8.64915615,4.35624462 C9.65964909,4.35624462 10.4838643,3.67787769 10.4838643,2.51562446 Z M6.01575029,0.155231697 L6.79020638,0.155231697 L6.79020638,1.10795521 C7.21507273,0.540720069 7.83259619,0.0545185185 8.79077827,0.0545185185 C10.0411357,0.0545185185 11.2812861,0.951676141 11.2812861,2.52604307 C11.2812861,4.07262705 10.0513427,4.98946425 8.79077827,4.98946425 C7.82111332,4.98946425 7.19465873,4.51020844 6.79020638,3.98117485 L6.79020638,6.35314384 L6.01575029,6.35314384 L6.01575029,0.155231697 L6.01575029,0.155231697 Z" id="Fill-14" fill="#FFFFFF" mask="url(#mask-3)"></path>
                </g>
                <path d="M75.8660751,42.987273 L76.6405312,42.987273 L76.6405312,44.2247717 C77.0245695,43.4341154 77.7824392,42.8680379 78.7699664,42.9062394 L78.7699664,43.6644823 L78.7087244,43.6644823 C77.5693681,43.6644823 76.6405312,44.4053609 76.6405312,45.8361826 L76.6405312,47.7196348 L75.8660751,47.7196348 L75.8660751,42.987273" id="Fill-16" fill="#FFFFFF"></path>
                <path d="M83.4345652,45.3580844 C83.4345652,44.340534 82.5975912,43.5093609 81.497787,43.5093609 C80.3686377,43.5093609 79.5916299,44.340534 79.5916299,45.3580844 C79.5916299,46.3756348 80.4183968,47.1975469 81.5156493,47.1975469 C82.6473503,47.1975469 83.4345652,46.3756348 83.4345652,45.3580844 Z M78.7929322,45.3580844 C78.7929322,44.0198725 79.9437714,42.8865599 81.5156493,42.8865599 C83.0811478,42.8865599 84.2332629,44.0048234 84.2332629,45.3580844 C84.2332629,46.6962963 83.0709408,47.8307666 81.497787,47.8307666 C79.9335644,47.8307666 78.7929322,46.7136606 78.7929322,45.3580844 L78.7929322,45.3580844 Z" id="Fill-17" fill="#FFFFFF"></path>
                <path d="M85.1378582,43.6100741 L84.4220924,43.6100741 L84.4220924,42.996534 L85.1378582,42.996534 L85.1378582,42.585578 C85.1378582,42.0449681 85.3011702,41.6316968 85.5920697,41.3654436 C85.8561758,41.1292885 86.2376624,41.0007924 86.711012,41.0007924 C87.0746363,41.0007924 87.3183285,41.0378363 87.5696758,41.1200276 L87.5696758,41.73241 C87.2877075,41.6583221 87.0746363,41.6154901 86.8143579,41.6154901 C86.2070414,41.6154901 85.9033832,41.9430973 85.9033832,42.6214643 L85.9033832,43.005795 L87.5607447,43.005795 L87.5607447,43.6100741 L85.914866,43.6100741 L85.914866,47.7196348 L85.1378582,47.7196348 L85.1378582,43.6100741" id="Fill-18" fill="#FFFFFF"></path>
                <path d="M91.628234,45.0767821 C91.5389227,44.2131955 90.9941241,43.481578 89.9632172,43.481578 C89.0662771,43.481578 88.3811323,44.1587873 88.271407,45.0767821 L91.628234,45.0767821 Z M90.1061152,47.2172265 C90.8244328,47.2172265 91.3258516,46.9509733 91.7494421,46.5492782 L92.2342746,46.9417123 C91.70989,47.4730612 91.0745042,47.8307666 90.0844253,47.8307666 C88.6516178,47.8307666 87.4829163,46.8317382 87.4829163,45.3580844 C87.4829163,43.9839862 88.5418925,42.8865599 89.9836312,42.8865599 C91.526164,42.8865599 92.4167247,44.0048234 92.4167247,45.3951283 C92.4167247,45.4599552 92.4167247,45.5317278 92.4052418,45.641702 L88.271407,45.641702 C88.3811323,46.6407304 89.1849335,47.2172265 90.1061152,47.2172265 L90.1061152,47.2172265 Z" id="Fill-19" fill="#FFFFFF"></path>
                <path d="M92.6808308,47.1153557 L93.0738003,46.6117898 C93.6364611,46.9972782 94.2616398,47.2172265 94.8791633,47.2172265 C95.504342,47.2172265 95.9572776,46.9255056 95.9572776,46.4474074 C95.9572776,45.9716245 95.3435818,45.7898777 94.6558852,45.6127614 C93.8393252,45.4043893 92.9321781,45.1473971 92.9321781,44.2606581 C92.9321781,43.4456916 93.6811167,42.9062394 94.7069202,42.9062394 C95.3435818,42.9062394 96.0478647,43.1065082 96.5837322,43.4248544 L96.2303148,43.9562033 C95.7454824,43.6737433 95.1892009,43.5000999 94.6890579,43.5000999 C94.0715345,43.5000999 93.6811167,43.7929785 93.6811167,44.2062498 C93.6811167,44.6542498 94.3241577,44.8267356 95.0207854,45.0200586 C95.8271384,45.2411645 96.6921816,45.5224668 96.6921816,46.3929991 C96.6921816,47.2901568 95.8781734,47.8099294 94.8383353,47.8099294 C94.0919485,47.8099294 93.2651815,47.547149 92.6808308,47.1153557" id="Fill-20" fill="#FFFFFF"></path>
                <path d="M97.0379437,47.1153557 L97.432189,46.6117898 C97.9961257,46.9972782 98.6225803,47.2172265 99.2375521,47.2172265 C99.8640066,47.2172265 100.319494,46.9255056 100.319494,46.4474074 C100.319494,45.9716245 99.7032464,45.7898777 99.0168257,45.6127614 C98.1964381,45.4043893 97.2905669,45.1473971 97.2905669,44.2606581 C97.2905669,43.4456916 98.0356779,42.9062394 99.0678607,42.9062394 C99.7032464,42.9062394 100.407529,43.1065082 100.944673,43.4248544 L100.588704,43.9562033 C100.106423,43.6737433 99.5488655,43.5000999 99.0448949,43.5000999 C98.4299232,43.5000999 98.0356779,43.7929785 98.0356779,44.2062498 C98.0356779,44.6542498 98.6825465,44.8267356 99.3817259,45.0200586 C100.186803,45.2411645 101.053122,45.5224668 101.053122,46.3929991 C101.053122,47.2901568 100.236562,47.8099294 99.1967241,47.8099294 C98.4503372,47.8099294 97.6235703,47.547149 97.0379437,47.1153557" id="Fill-21" fill="#FFFFFF"></path>
                <path d="M101.826302,47.7196348 L102.604586,47.7196348 L102.604586,42.987273 L101.826302,42.987273 L101.826302,47.7196348 Z M101.775267,41.9546736 L102.664552,41.9546736 L102.664552,41.1744358 L101.775267,41.1744358 L101.775267,41.9546736 Z" id="Fill-22" fill="#FFFFFF"></path>
                <path d="M108.019399,45.3580844 C108.019399,44.340534 107.179873,43.5093609 106.082621,43.5093609 C104.95092,43.5093609 104.172636,44.340534 104.172636,45.3580844 C104.172636,46.3756348 105.001955,47.1975469 106.101759,47.1975469 C107.230908,47.1975469 108.019399,46.3756348 108.019399,45.3580844 Z M103.375214,45.3580844 C103.375214,44.0198725 104.528605,42.8865599 106.101759,42.8865599 C107.665982,42.8865599 108.814269,44.0048234 108.814269,45.3580844 C108.814269,46.6962963 107.654499,47.8307666 106.082621,47.8307666 C104.517123,47.8307666 103.375214,46.7136606 103.375214,45.3580844 L103.375214,45.3580844 Z" id="Fill-23" fill="#FFFFFF"></path>
                <path d="M109.572139,42.987273 L110.349147,42.987273 L110.349147,43.8103428 C110.692357,43.2975159 111.238432,42.8865599 112.131544,42.8865599 C113.397212,42.8865599 114.132116,43.6552214 114.132116,44.7804307 L114.132116,47.7196348 L113.356384,47.7196348 L113.356384,44.9563893 C113.356384,44.076596 112.831999,43.5278829 111.913369,43.5278829 C111.015154,43.5278829 110.349147,44.1229009 110.349147,45.00964 L110.349147,47.7196348 L109.572139,47.7196348 L109.572139,42.987273" id="Fill-24" fill="#FFFFFF"></path>
                <path d="M118.587471,45.9832007 L118.587471,45.5398312 C118.205985,45.4414332 117.700738,45.3395624 117.066628,45.3395624 C116.098239,45.3395624 115.543234,45.7262084 115.543234,46.3096503 C115.543234,46.9046684 116.147998,47.2519552 116.853557,47.2519552 C117.811739,47.2519552 118.587471,46.7321826 118.587471,45.9832007 Z M114.754743,46.3270146 C114.754743,45.3129371 115.663166,44.7804307 116.984972,44.7804307 C117.652255,44.7804307 118.114122,44.8637795 118.57854,44.9830146 L118.57854,44.8348389 C118.57854,43.9944048 118.013328,43.5533506 117.036007,43.5533506 C116.41976,43.5533506 115.936203,43.6934229 115.451371,43.8948493 L115.219161,43.3171955 C115.794581,43.0787252 116.349587,42.9155004 117.116387,42.9155004 C117.852567,42.9155004 118.425435,43.0960896 118.799266,43.4341154 C119.162891,43.7663531 119.345341,44.2247717 119.345341,44.8267356 L119.345341,47.7196348 L118.57854,47.7196348 L118.57854,47.0158002 C118.21364,47.4360172 117.621634,47.8215056 116.70428,47.8215056 C115.724408,47.8215056 114.754743,47.3190973 114.754743,46.3270146 L114.754743,46.3270146 Z" id="Fill-25" fill="#FFFFFF"></path>
                <polygon id="Fill-26" fill="#FFFFFF" points="120.409421 47.7196348 121.185153 47.7196348 121.185153 41.0378363 120.409421 41.0378363"></polygon>
                <path d="M121.846056,47.1153557 L122.241577,46.6117898 C122.804238,46.9972782 123.429417,47.2172265 124.045664,47.2172265 C124.670843,47.2172265 125.125054,46.9255056 125.125054,46.4474074 C125.125054,45.9716245 124.508807,45.7898777 123.822386,45.6127614 C123.008378,45.4043893 122.098679,45.1473971 122.098679,44.2606581 C122.098679,43.4456916 122.84379,42.9062394 123.874697,42.9062394 C124.508807,42.9062394 125.216917,43.1065082 125.752785,43.4248544 L125.39554,43.9562033 C124.913259,43.6737433 124.360805,43.5000999 123.853007,43.5000999 C123.238035,43.5000999 122.84379,43.7929785 122.84379,44.2062498 C122.84379,44.6542498 123.490659,44.8267356 124.184735,45.0200586 C124.994915,45.2411645 125.861234,45.5224668 125.861234,46.3929991 C125.861234,47.2901568 125.044674,47.8099294 124.006112,47.8099294 C123.259725,47.8099294 122.430407,47.547149 121.846056,47.1153557" id="Fill-27" fill="#FFFFFF"></path>
                <path d="M39.8404706,0.531459087 C37.856485,0.201536606 35.8150852,0.0278931955 33.7290296,0.0278931955 C33.4177162,0.0278931955 33.1102303,0.0325236865 32.8027444,0.0394694229 C14.9022192,0.478208441 0.482280724,13.5628183 0,29.80195 C0.941595698,29.8841413 1.89595015,29.9258157 2.86178747,29.9258157 C4.56635637,29.9258157 6.23647666,29.7892162 7.86576894,29.5438002 C9.97734195,18.1088028 19.9164077,9.09323686 32.5143967,7.17737123 C30.4028237,18.6088958 20.463758,27.6256193 7.86576894,29.5438002 C7.59528346,31.0197692 7.44345434,32.5350973 7.44345434,34.0816813 C7.44345434,34.9568441 7.48938584,35.8227459 7.57742121,36.6759139 C25.4766706,36.2406477 39.8978849,23.1560379 40.3788898,6.91459087 C40.386545,6.63676141 40.3929244,6.35545909 40.3929244,6.07531438 C40.3929244,4.18028596 40.2002673,2.32808958 39.8404706,0.531459087" id="Fill-28" fill="#FFFFFF"></path>
                <path d="M5.80778268,47.8215056 C7.41155747,47.2253299 8.86222726,46.3571128 10.0959983,45.2839966 C8.76781252,42.6145185 7.89383819,39.7204617 7.57742121,36.6759139 C7.26993535,36.6840172 6.96372537,36.6886477 6.65241188,36.6886477 C4.56635637,36.6886477 2.52240474,36.5173196 0.54097097,36.1885547 C1.39708305,40.4393454 3.22923945,44.3810508 5.80778268,47.8215056" id="Fill-29" fill="#FFFFFF"></path>
            </g>
        </g>
    </g>
</svg>