<?xml version="1.0" encoding="UTF-8"?>
<svg width="32px" height="44px" viewBox="0 0 32 44" version="1.1" xmlns="http://www.w3.org/2000/svg" xmlns:xlink="http://www.w3.org/1999/xlink">
    <!-- Generator: Sketch 43.2 (39069) - http://www.bohemiancoding.com/sketch -->
    <title>Shape</title>
    <desc>Created with Sketch.</desc>
    <defs></defs>
    <g id="Page-1" stroke="none" stroke-width="1" fill="none" fill-rule="evenodd">
        <g id="drewbery" transform="translate(-944.000000, -818.000000)">
            <g id="flaticon1489792440-svg-copy-2" transform="translate(944.000000, 818.000000)">
                <g id="Capa_1">
                    <g id="Group-8">
                        <path d="M24.7791114,12.7834133 C21.7945675,7.83808119 18.475016,3.55798356 16.7617663,1.44675973 C16.5324985,1.1640213 16.1884871,0.999889714 15.8253699,0.999999944 C15.462143,0.999999944 15.1182413,1.16413153 14.8888637,1.44686996 C13.1757239,3.55875516 9.85617235,7.84028578 6.87162845,12.7860588 C3.02546373,19.1598538 1.07526013,24.429591 1.07526013,28.4485552 C1.07526013,36.6133576 7.69207332,43.2558919 15.8252601,43.2558919 C23.9584469,43.2558919 30.5752601,36.6133576 30.5752601,28.4485552 C30.5753699,24.4269455 28.6253859,19.1564367 24.7791114,12.7834133 Z" id="Shape" stroke="#AFAFAF" fill="#FFFFFF"></path>
                        <path d="M21,30.7645 L20.2267,30 L15.49285,34.54355 L14.98795,34.059 L14.9907,34.06175 L10.78485,30.02475 L10,30.7777 C11.16215,31.89365 14.4077,35.00885 15.49285,36.05 C16.29915,35.2767 15.5132,36.03075 21,30.7645" id="arrow_down-[#339]" fill="#AFAFAF"></path>
                    </g>
                </g>
            </g>
        </g>
    </g>
</svg>